<?xml version="1.0" encoding="UTF-8"?>
<svg id="a" data-name="Layer 1" xmlns="http://www.w3.org/2000/svg" viewBox="0 0 355.24 308">
  <defs>
    <style>
      .b {
        fill: #fff;
      }

      .c {
        fill: #555959;
      }

      .d {
        fill: #d9d6bc;
      }
    </style>
  </defs>
  <circle class="c" cx="166" cy="154" r="154" transform="translate(-60.27 162.49) rotate(-45)"/>
  <path class="d" d="M23.91,154c0,37.96,14.78,73.64,41.62,100.48,26.84,26.84,62.52,41.62,100.48,41.62s73.64-14.78,100.48-41.62c26.84-26.84,41.62-62.52,41.62-100.48,0-78.35-63.74-142.09-142.09-142.09S23.91,75.65,23.91,154Z"/>
  <path class="b" d="M233.14,80.34h0c-4.37,0-7.7,2.28-9.87,4.38-6.3,.55-8.93,7.28-9.83,9.71-.01,.02-.24,.51-.24,.51l-1.2,3c-.63,2.38-.95,4.7-.95,6.89,0,4.29,.88,8.19,2.23,11.71-1.35-.59-2.72-1.11-4.06-1.59-1.7-.61-3.3-1.19-4.69-1.9l-4.33-2.31c-5.25-2.89-10.68-5.88-17-5.88s-12.51,2.71-16.66,7.62c-3.61,4.28-5.6,9.86-5.6,15.71,0,3.71,1.14,9.98,2.45,15.95-6.86-2.58-15.13-4.95-22.36-4.95h-13.73c-19.25,0-37.86-8.48-43.21-11.13-1.52-2.23-4.32-5.91-8.12-8.93-2.54-2.02-5.28-3.65-8.17-5.38-3.53-2.1-7.17-4.28-10.76-7.36l-5.84-5.07c-14.82-12.95-24.34-20.88-32.77-20.88-10.85,0-18.43,8.64-18.43,21.01,0,8.98,9.3,22.81,11.19,24.7,1.6,1.6,3.88,3.03,7.04,5,3.09,1.93,6.94,4.34,10.31,7.1,1.88,1.54,3.71,3.5,5.49,5.4,2.96,3.16,6.01,6.42,9.84,8.45l.22,.12,.23,.1c4.47,1.99,17.89,2.71,22.04,2.84,1.34,.71,4.23,2.69,6.61,4.32,12.23,8.4,32.7,22.45,55.94,22.45h17.08c1.18,.56,3.6,1.98,5.49,3.08,6.21,3.65,11.68,6.71,16.61,8.41v3.69c0,4.69,1.38,8.74,3.69,11.71h-.72s-2.03,4.92-2.17,5.27c-.9,1.38-1.87,3.52-1.87,6.38,0,1.86,.43,3.2,.69,4,.17,.52,.29,.89,.29,2.33,0,1.94-.17,3.05-.31,3.7-.82,.6-1.65,1.2-1.65,1.2v3.75c0,.99-.42,2.29-1.27,3.98-.79,1.57-1.32,3.19-1.78,4.61-.29,.9-.69,2.13-.95,2.57,0,0-1.15,1.55-1.15,1.55-1.43,1.78-3.59,4.46-3.59,8.51v.48c-3.44,3.25-6.42,7.31-6.42,11.73,0,4,2.62,8.37,9.6,9.87,1.47,1.26,3.4,2.09,5.75,2.09,3.25,0,5.72-1.66,7.41-3.79h4.23c3.9,0,6.37-2.27,7.7-3.74,.46-.14,.86-.28,1.14-.39,.29-.11,.82-.32,3.19-.32,5.64,0,9.96-4.12,13.48-8.04,1.53,1.1,3.34,1.7,5.24,1.7s3.62-.66,5.04-1.78h6.61v-12.73c2.66-3.28,6.84-9.45,7.41-16.22,.67-1.12,2.31-3.3,3.58-5.01,5.6-7.46,10.05-13.8,11.07-19.87,.85-.5,2.01-1.12,3.04-1.67,4.44-2.36,11.15-5.92,17.61-12.22,9.2-8.97,16-26.34,19.58-37.14,1.98-1.83,4.78-4.96,6.26-8.84,2.43,.42,4.97,1.32,6.97,2.02l1,.35c1.01,.35,2,.86,3.15,1.46,1.63,.84,3.47,1.8,5.89,2.6l7.01,2.09c.99,.28,2.08,.59,3.16,.91-1.25,1.97-2.23,4.09-2.23,6.58,0,7.64,4.93,11.12,9.51,11.12,.36,0,.69-.05,1.02-.1,.58,1.19,1.18,1.88,1.52,2.25,.18,.19,.38,.33,.57,.51,.63,4.32,3.99,7.33,8.49,7.33,.09,0,.17-.02,.27-.03,1.62,1.2,3.62,1.74,5.98,1.54,.07,0-.27,0-.27,0,1.23,0,2.38-.27,3.43-.75,2.22,.25,4.67-.37,6.91-2.36l1.47-1.31,.62-1.87c.19-.58,1.9-5.82,1.9-10.54,0,0,.02-.49,.02-.49,.02-.46,.04-1.01,.04-1.63,0-1.58-.16-3.56-.96-5.54-1.08-2.69-3-4.44-4.4-5.72,0,0-.54-.51-.77-.74-.08-.22-.16-.48-.24-.76-.39-1.34-.97-3.38-2.73-5.14l-.27-.27-.3-.24c-1.81-1.47-4.63-4.97-7.13-8.06-6.38-7.9-11.42-14.14-18.06-14.14h-.45c-1.09-.66-2.73-1.68-4.26-2.64-19.17-12.02-31.76-18.98-39.39-18.98-1.44,0-2.72,.17-3.91,.4,.29-1.03,.31-1.81,.31-2.21,0-4.32-3.16-7.92-8.75-13.92,0,0-.1-.12-.12-.13,.05-.45,.13-.87,.13-1.38,0-3.44-2.19-6.51-5.72-8.02l-1.39-.6h-1.87c-1.23-.71-2.64-1.11-4.14-1.11-.3,0-.58,.02-.87,.03-1.22-.62-2.59-.97-4.07-.97h-12.75Z"/>
  <path class="c" d="M347.45,167.69c-.86-2.14-3.83-3.66-4.81-5.62-.89-1.78-.94-3.52-1.7-4.28-6.15-4.99-15.42-20.55-20.55-20.55h-2.27c-1.25,0-32.28-21.62-41.82-21.62-4.1,0-7.13,1.96-8.83,1.96s-6.33,2.32-6.33,2.32v-3.39s1.96-.89,1.96-1.96,.36-5.35,.36-5.35c0,0,1.87-1.87,1.87-2.76,0-2.59-9.81-11.59-9.81-12.48s1.07-.98,1.07-2.94c0-.71-1.25-1.25-1.25-1.25h-3.39s-.18-1.11-1.11-1.11c-1.83,0-3.7,.31-3.7,.31,0,0,.27-1.25-1.25-1.25h-12.75c-3.66,0-6.42,4.28-6.42,4.28h-2.67c-1.35,0-2.56,1.95-3.73,5.1-.26,.72-.98,1.95-1.19,2.72-.44,1.66-.7,3.4-.7,5.02,0,9.69,5.81,17.22,10.22,21.53,1.04,1.02,2.73,.3,3.51,.94,1.25,1.02,1.34,3.12,1.34,3.12h-11.5s-3.82-2.65-9.25-5.93c-3.25-1.96-7.61-2.88-11.53-4.86-6.68-3.37-12.22-7.4-18.01-7.4-9.54,0-14.89,8.03-14.89,15.96,0,7.22,5.79,28.8,5.79,28.8,0,0-19.53-10.43-33.08-10.43h-13.73c-24.97,0-48.33-12.84-48.33-12.84,0,0-3-5.17-7.59-8.83-5.07-4.03-12.08-6.85-19.15-12.92-13.24-11.38-26.64-24.17-33.8-24.17-8.2,0-11.06,7.22-11.06,13.64s7.79,18.25,9.03,19.49c2.26,2.26,10.08,6.1,16.81,11.62,5.37,4.4,9.38,10.53,14.1,13.03,2.78,1.24,15.78,2.23,20.15,2.23,5.17,0,31.74,26.75,61.44,26.75h18.19c3.03,0,19.97,12.93,28.36,12.93v9.63c0,4.99,2.32,9.54,6.69,9.54h1.78v5.17c-1.86,1.86-2.23,4.37-2.23,4.37h-5.71l-.62,1.51s-.98,.98-.98,2.77,.98,2.05,.98,6.33c0,7.22-1.96,8.65-1.96,8.65,0,2.5-.87,4.95-2.06,7.31-1.17,2.32-1.71,5.5-2.98,7.63-1.53,2.57-3.7,4.05-3.7,6.29h3.39v1.42s-9.81,6.33-9.81,10.79c0,2.67,6.42,3.03,6.42,3.03,0,0,0,1.56,1.56,1.56s2.5-2.5,2.5-2.5l1.29-1.29h7.85c2.14,0,3.03-3.3,4.72-3.3s1.52-1.16,7.31-1.16,12.04-12.66,16.05-12.66c0,0-.09,6.33,2.68,6.33,1.07,0,1.51-2.32,1.51-2.32l1.43,.54h1.34v-8.12s7.49-7.67,7.49-14.98c0-3.3,14.8-17.83,14.8-25.95,0-4.21,11.65-5.86,22.65-16.59,7.41-7.22,14.1-22.75,18.37-36.11,0,0,6.24-4.81,6.24-9.54,0,0,2.41-2.68,3.83-2.68,4.79,0,9.67,1.9,12.93,3.03,3.18,1.11,5.39,2.85,8.92,4.01,8.02,2.64,15.47,3.79,18.72,7.04-.64,.73-1.39,2.4-2.13,3.39-1.82,2.44-3.58,4.57-3.58,6.15,0,2.23,.62,3.74,2.14,3.74s2.59-3.92,4.73-3.92c1.34,0,2.32,.54,2.32,.54,0,0-.71,8.29,1.7,8.29s1.96-7.13,1.96-7.13l1.61-.18,.36,6.87s-2.32,2.59-2.32,4.1c0,.98,.27,1.43,1.25,1.43s3.48-4.1,4.1-4.1,.8,2.14,.8,2.14c0,0-.45,1.61-.45,3.03,0,.71,.98,.45,1.52,.45,1.34,0,1.96-3.12,1.96-3.12h1.43s.05,1.83,.54,2.32c.49,.49,1.51-.45,1.51-.45,0,0,1.52-4.55,1.52-8.2,0-1.11,.28-3.31-.36-4.91Zm-136.69,64.83v2.94h-2.32v-2.85c0-4.46-4.1-6.69-4.1-8.83,0-4.37-2.14-4.91-2.14-6.6v-7.4h2.32s1.07,1.16,3.12,1.16h12.93c-5.97,5.17-9.81,18.37-9.81,21.58Z"/>
  <path class="b" d="M80.34,105.49c0,17.36,14.13,31.49,31.49,31.49s31.49-14.13,31.49-31.49-14.13-31.49-31.49-31.49-31.49,14.13-31.49,31.49Z"/>
  <path class="c" d="M135.95,105.49c0,13.32-10.8,24.12-24.12,24.12s-24.12-10.8-24.12-24.12,10.8-24.12,24.12-24.12,24.12,10.8,24.12,24.12Z"/>
</svg>